<svg width="90" height="53" viewBox="0 0 90 53" fill="none" xmlns="http://www.w3.org/2000/svg">
<g clip-path="url(#clip0_2_12)" filter="url(#filter0_d_2_12)">
<path d="M66.73 0H23.27C12.6275 0 4 10.0736 4 22.5C4 34.9264 12.6275 45 23.27 45H66.73C77.3725 45 86 34.9264 86 22.5C86 10.0736 77.3725 0 66.73 0Z" fill="white"/>
<path d="M59.5926 11.1217C58.2851 10.2648 56.4629 9.17789 53.9619 8.37297C51.5413 7.59399 49.1238 7.19563 45.8741 7.03948C45.329 7.01325 44.7793 7 44.2417 7C37.5176 7 32.8496 9.00167 30.1178 10.6809C27.0625 12.558 23.5319 15.7314 24.0512 20.1897C24.4354 23.4822 27.5044 26.0703 29.969 28.1499L30.0737 28.239C30.5141 28.6097 30.9712 28.9728 31.4556 29.3581C32.9802 30.568 34.5565 31.819 35.6878 33.4083L35.8184 33.5902C36.2815 34.2352 36.8555 35.0379 36.7872 35.451C36.7371 35.7463 36.529 35.8906 36.2891 36.0577C35.9566 36.2897 35.542 36.5785 35.8077 37.1971C36.154 38 37.8001 38 39.7058 38H49.6401C51.2118 38 52.8381 38 53.1844 37.1968C53.4455 36.5925 52.9915 36.2537 52.6271 35.9816C52.4205 35.8277 52.2429 35.6948 52.2034 35.528C52.0181 34.7214 53.4349 32.8898 54.8304 31.5293C55.7127 30.6706 56.6572 29.9249 57.5729 29.2039C57.9951 28.8706 58.396 28.5557 58.7741 28.2407C58.9745 28.074 59.1765 27.9073 59.38 27.7409C61.9159 25.6511 64.5385 23.4906 64.9409 20.2783C65.5103 15.7348 61.8339 12.5912 59.5926 11.1217ZM55.8099 26.6175C55.6277 26.7649 55.447 26.9119 55.2663 27.0587C54.9504 27.3162 54.6346 27.5717 54.3172 27.8253C51.4699 30.1121 48.7791 32.2751 48.1489 35.5647H40.8371C40.052 32.0866 37.3096 29.8684 34.4076 27.5231C34.1829 27.3405 33.9551 27.1566 33.7273 26.9716L33.3401 26.6569C31.0805 24.8245 28.5187 22.7477 28.1513 20.3208C27.5697 16.4878 30.4564 13.8741 32.9787 12.3564C36.201 10.417 40.0915 9.43363 44.5378 9.43363C45.0465 9.43363 45.5674 9.44688 46.0882 9.47311C53.936 9.86727 60.2775 13.8014 60.8408 18.6243C61.2569 22.2041 58.4871 24.4477 55.8084 26.6175H55.8099Z" fill="#231F20"/>
<path d="M52.2857 27.9423C52.1778 27.911 52.0223 27.897 51.7809 27.897C51.6558 27.897 51.5203 27.9007 51.3891 27.9044C51.2592 27.9079 51.1251 27.9117 51.0029 27.9117C50.9491 27.9117 50.8932 27.9103 50.8343 27.909C50.7736 27.9076 50.711 27.9061 50.6493 27.9061C50.4302 27.9061 49.9743 27.9061 49.9525 28.3002C49.9464 28.4082 49.972 28.499 50.0281 28.5698C50.1534 28.7275 50.4056 28.7488 50.6355 28.7488C50.7423 28.7488 50.8545 28.7433 50.9632 28.738C51.07 28.7328 51.1713 28.728 51.2656 28.728C51.3335 28.728 51.4103 28.7283 51.4916 28.7286C51.6679 28.7293 51.8637 28.7301 52.0305 28.728C52.3139 28.7244 52.5819 28.7211 52.6024 28.3679C52.6219 28.04 52.4274 27.9835 52.2857 27.9423Z" fill="#231F20"/>
</g>
<defs>
<filter id="filter0_d_2_12" x="0" y="0" width="90" height="53" filterUnits="userSpaceOnUse" color-interpolation-filters="sRGB">
<feFlood flood-opacity="0" result="BackgroundImageFix"/>
<feColorMatrix in="SourceAlpha" type="matrix" values="0 0 0 0 0 0 0 0 0 0 0 0 0 0 0 0 0 0 127 0" result="hardAlpha"/>
<feOffset dy="4"/>
<feGaussianBlur stdDeviation="2"/>
<feComposite in2="hardAlpha" operator="out"/>
<feColorMatrix type="matrix" values="0 0 0 0 0 0 0 0 0 0 0 0 0 0 0 0 0 0 0.25 0"/>
<feBlend mode="normal" in2="BackgroundImageFix" result="effect1_dropShadow_2_12"/>
<feBlend mode="normal" in="SourceGraphic" in2="effect1_dropShadow_2_12" result="shape"/>
</filter>
<clipPath id="clip0_2_12">
<rect width="82" height="45" fill="white" transform="translate(4)"/>
</clipPath>
</defs>
</svg>
