<svg width="82" height="45" viewBox="0 0 82 45" fill="none" xmlns="http://www.w3.org/2000/svg">
<g clip-path="url(#clip0_1_6)">
<path d="M62.73 0H19.27C8.62747 0 0 10.0736 0 22.5C0 34.9264 8.62747 45 19.27 45H62.73C73.3725 45 82 34.9264 82 22.5C82 10.0736 73.3725 0 62.73 0Z" fill="white"/>
<path d="M52.345 12.8063C52.3499 12.7591 52.3499 12.7118 52.345 12.6646C52.3147 11.6863 51.704 10.7547 50.6438 10.0697C49.5836 9.3847 48.1582 9.00062 46.6733 9C45.1885 8.99939 43.7622 9.38215 42.7007 10.0663C41.6391 10.7504 41.0265 11.6814 40.9944 12.6597C41.4311 14.5074 42.5781 15.0897 43.47 16.4568L31.0567 16.2959L30.815 24.4076C28.4627 23.8034 26.7731 22.7174 24.7776 22.6922C24.7054 22.6891 24.633 22.6891 24.5609 22.6922C23.0767 22.7118 21.6634 23.1139 20.6238 23.8122C19.5842 24.5105 19.0013 25.4494 19 26.4277C18.9987 27.4058 19.5791 28.3454 20.6167 29.0449C21.6545 29.7444 23.0668 30.1482 24.5508 30.1695C27.5208 29.8652 28.336 29.0336 30.6916 28.4366L30.4415 36.7235L42.9091 36.885C42.0154 35.4624 40.8294 34.8933 40.385 33.0115C40.4171 32.0333 41.0295 31.1025 42.0908 30.4184C43.1522 29.7343 44.5781 29.3515 46.0628 29.3521C47.5474 29.3527 48.9726 29.7366 50.0328 30.4215C51.093 31.1063 51.7037 32.0377 51.7339 33.0158C51.7381 33.0632 51.7381 33.1108 51.7339 33.1581C51.6964 34.4215 50.1709 35.5035 49.2332 36.9668L61.4407 37.125L62.05 16.6919L49.8876 16.5348C50.8346 15.1132 52.3082 14.0498 52.345 12.8063Z" fill="black"/>
</g>
<defs>
<clipPath id="clip0_1_6">
<rect width="82" height="45" fill="white"/>
</clipPath>
</defs>
</svg>
