<svg width="211" height="166" viewBox="0 0 211 166" fill="none" xmlns="http://www.w3.org/2000/svg">
<g clip-path="url(#clip0_4_17)">
<path d="M0 31.125C0 25.396 6.74918 20.75 15.0714 20.75H195.929C204.265 20.75 211 25.396 211 31.125C211 36.8636 204.265 41.5 195.929 41.5H15.0714C6.74918 41.5 0 36.8636 0 31.125ZM0 83C0 77.2614 6.74918 72.625 15.0714 72.625H195.929C204.265 72.625 211 77.2614 211 83C211 88.7386 204.265 93.375 195.929 93.375H15.0714C6.74918 93.375 0 88.7386 0 83ZM195.929 145.25H15.0714C6.74918 145.25 0 140.614 0 134.875C0 129.136 6.74918 124.5 15.0714 124.5H195.929C204.265 124.5 211 129.136 211 134.875C211 140.614 204.265 145.25 195.929 145.25Z" fill="white"/>
</g>
<defs>
<clipPath id="clip0_4_17">
<rect width="211" height="166" fill="white"/>
</clipPath>
</defs>
</svg>
