<svg width="34" height="23" viewBox="0 0 34 23" fill="none" xmlns="http://www.w3.org/2000/svg">
<g clip-path="url(#clip0_1_2)">
<path d="M29.6108 12.6961C29.2368 12.6961 28.8459 12.6153 28.4719 12.5576C27.7143 12.4426 26.9695 12.2923 26.2438 12.1074C25.4544 11.9126 24.5864 11.9228 23.8075 12.1358C23.0287 12.3489 22.3944 12.7499 22.0247 13.2616L21.6507 13.7925C19.9985 13.1568 18.4728 12.3811 17.1085 11.4842C15.7868 10.5589 14.6435 9.52343 13.7064 8.40247L14.4895 8.16011C15.2439 7.90955 15.8346 7.47859 16.148 6.95016C16.4625 6.42174 16.4774 5.83316 16.1905 5.29769C15.9196 4.80031 15.6986 4.29136 15.5265 3.77422C15.4415 3.52029 15.3735 3.25478 15.3225 3.00085C15.1164 2.18787 14.4884 1.45166 13.5535 0.924816C12.6174 0.397901 11.4348 0.115001 10.2194 0.126932H5.09922C4.37991 0.126357 3.66908 0.22885 3.01247 0.427728C2.35585 0.626606 1.76831 0.917485 1.28913 1.28117C0.800384 1.65471 0.435945 2.09573 0.221322 2.57384C0.00669893 3.05203 -0.0528021 3.55601 0.047072 4.05123C0.972501 8.85507 4.20671 13.3178 9.25035 16.7472C14.3046 20.1692 20.8814 22.364 27.9619 22.9914C28.1818 23.0029 28.4039 23.0029 28.6249 22.9914C29.8786 22.9927 31.0898 22.6804 32.027 22.1142C32.5625 21.789 32.9917 21.3904 33.2849 20.9449C33.5782 20.4993 33.7291 20.0167 33.728 19.5289V16.0663C33.7184 15.2688 33.3041 14.4979 32.554 13.8838C31.8038 13.2698 30.7647 12.8502 29.6108 12.6961ZM30.4449 19.6211C30.4438 19.7822 30.3939 19.9414 30.2972 20.0885C30.2006 20.2356 30.0592 20.3673 29.8839 20.4753C29.6969 20.5905 29.4749 20.6762 29.2337 20.7261C28.9925 20.776 28.7385 20.7889 28.4889 20.7638C22.1405 20.2013 16.2415 18.2385 11.6994 15.1775C7.15299 12.093 4.2354 8.0763 3.39816 3.75108C3.36203 3.58182 3.3801 3.4091 3.45448 3.24537C3.52779 3.08171 3.65422 2.9312 3.82422 2.8047C3.98465 2.68367 4.18121 2.58714 4.40115 2.52152C4.62108 2.45582 4.85909 2.42255 5.09922 2.42377H10.2023C10.5955 2.4173 10.9801 2.5034 11.2903 2.66757C11.6006 2.83173 11.8173 3.06367 11.9034 3.32407C11.9034 3.63572 12.0564 3.95887 12.1584 4.27052C12.3549 4.87513 12.6174 5.46918 12.9414 6.04792L10.5593 6.80972C10.1503 6.93723 9.83259 7.16967 9.67534 7.45602C9.50534 7.73705 9.50534 8.05222 9.67534 8.33325C12.1233 11.8913 16.3382 14.7514 21.5827 16.4125C21.997 16.528 22.4614 16.528 22.8757 16.4125C23.2975 16.3059 23.6397 16.0901 23.8277 15.8123L24.8998 14.1965C25.7774 14.4137 26.6752 14.591 27.5868 14.7274C28.0299 14.7967 28.5058 14.8544 28.9648 14.9005C29.3484 14.9592 29.6905 15.1062 29.9328 15.3167C30.174 15.5271 30.3015 15.7879 30.2919 16.0547L30.4449 19.6211ZM20.4086 0C20.0176 0 19.6096 0 19.2176 0C18.7671 0.0260187 18.3495 0.172571 18.0573 0.407458C17.7662 0.642273 17.6228 0.94616 17.6621 1.25228C17.7003 1.55839 17.916 1.84165 18.2624 2.03967C18.6077 2.23775 19.0561 2.33443 19.5076 2.30841H20.4086C23.1159 2.30841 25.7115 3.03801 27.6261 4.33672C29.5397 5.63543 30.6149 7.39687 30.6149 9.23349C30.6149 9.44128 30.6149 9.63742 30.6149 9.84521C30.5777 10.1497 30.719 10.4519 31.0091 10.6856C31.2991 10.9192 31.7146 11.0653 32.1629 11.0917H32.2989C32.725 11.0929 33.1362 10.9857 33.4507 10.7912C33.7652 10.5967 33.9617 10.3292 34 10.0414C34 9.77593 34 9.49892 34 9.23349C34 6.78665 32.5688 4.43979 30.0199 2.70853C27.4721 0.977211 24.0147 0.00309062 20.4086 0ZM23.8107 9.23349C23.8107 9.5396 23.9903 9.83314 24.309 10.0496C24.6278 10.2661 25.0602 10.3877 25.5118 10.3877C25.9633 10.3877 26.3958 10.2661 26.7145 10.0496C27.0333 9.83314 27.2128 9.5396 27.2128 9.23349C27.2128 8.00902 26.4956 6.83473 25.2196 5.96893C23.9435 5.10312 22.2138 4.61674 20.4086 4.61674C19.9581 4.61674 19.5246 4.73836 19.2059 4.95477C18.8871 5.17126 18.7076 5.46479 18.7076 5.77091C18.7076 6.07703 18.8871 6.37064 19.2059 6.58705C19.5246 6.80354 19.9581 6.92515 20.4086 6.92515C21.3107 6.92515 22.1766 7.1683 22.8141 7.60121C23.4526 8.03411 23.8107 8.62126 23.8107 9.23349Z" fill="white"/>
</g>
<defs>
<clipPath id="clip0_1_2">
<rect width="34" height="23" fill="white"/>
</clipPath>
</defs>
</svg>
